{"title":"The Tree of Life [2011] 720p BRRip XviD AC3 - CODY","uid":6686611,"size":2921888546,"categoryP":"video","categoryS":"hd___movies","magnet":"?xt=urn:btih:c4f318f5be5b697073695845023dff8e424e1b06&amp;dn=The+Tree+of+Life+%5B2011%5D+720p+BRRip+XviD+AC3+-+CODY&amp;tr=udp%3A%2F%2Ftracker.openbittorrent.com%3A80&amp;tr=udp%3A%2F%2Fopen.demonii.com%3A1337&amp;tr=udp%3A%2F%2Ftracker.coppersurfer.tk%3A6969&amp;tr=udp%3A%2F%2Fexodus.desync.com%3A6969","seeders":0,"leechers":0,"uploader":"CODYBOSS1969","files":3,"time":1316425202,"description":"General\nComplete name                    : The Tree of Life [2011] 720p BRRip XviD AC3 - CODY.avi\nFormat                           : AVI\nFormat/Info                      : Audio Video Interleave\nFormat profile                   : OpenDML\nFile size                        : 2.72 GiB\nDuration                         : 2h 18mn\nOverall bit rate                 : 2 805 Kbps\nWriting application              : VirtualDubMod 1.5.10.2 (build 2540/release)\nWriting library                  : VirtualDubMod build 2540/release\n\nVideo\nID                               : 0\nFormat                           : MPEG-4 Visual\nFormat profile                   : Advanced Simple@L5\nFormat settings, BVOP            : 4\nFormat settings, QPel            : No\nFormat settings, GMC             : No warppoints\nFormat settings, Matrix          : Default (H.263)\nCodec ID                         : XVID\nCodec ID/Hint                    : XviD\nDuration                         : 2h 18mn\nBit rate                         : 2 346 Kbps\nWidth                            : 1 280 pixels\nHeight                           : 688 pixels\nDisplay aspect ratio             : 1.860\nFrame rate                       : 23.976 fps\nColor space                      : YUV\nChroma subsampling               : 4:2:0\nBit depth                        : 8 bits\nScan type                        : Progressive\nCompression mode                 : Lossy\nBits/(Pixel*Frame)               : 0.111\nStream size                      : 2.28 GiB (84%)\nWriting library                  : XviD 1.2.0.dev47 (UTC 2006-11-01)\n\nAudio\nID                               : 1\nFormat                           : AC-3\nFormat/Info                      : Audio Coding 3\nMode extension                   : CM (complete main)\nCodec ID                         : 2000\nDuration                         : 2h 18mn\nBit rate mode                    : Constant\nBit rate                         : 448 Kbps\nChannel(s)                       : 6 channels\nChannel positions                : Front: L C R, Side: L R, LFE\nSampling rate                    : 48.0 KHz\nBit depth                        : 16 bits\nCompression mode                 : Lossy\nStream size                      : 445 MiB (16%)\nAlignment                        : Split accross interleaves\nInterleave, duration             : 42 ms (1.00 video frame)\nInterleave, preload duration     : 500 ms\n\n\n\n\nIMDB link:                      &lt;a href=&quot; http://www.imdb.com/title/tt0478304/&quot; rel=&quot;nofollow&quot; target=&quot;_NEW&quot;&gt; http://www.imdb.com/title/tt0478304/&lt;/a&gt;\n\n \n\n\nPlease seed at least 1,5:1. This way this torrent has a chance to survive !!\n\n\n\nEnjoy!\n","torrent":{"xt":"urn:btih:c4f318f5be5b697073695845023dff8e424e1b06","amp;dn":"The+Tree+of+Life+%5B2011%5D+720p+BRRip+XviD+AC3+-+CODY","amp;tr":["udp%3A%2F%2Ftracker.openbittorrent.com%3A80","udp%3A%2F%2Fopen.demonii.com%3A1337","udp%3A%2F%2Ftracker.coppersurfer.tk%3A6969","udp%3A%2F%2Fexodus.desync.com%3A6969"],"infoHash":"c4f318f5be5b697073695845023dff8e424e1b06","infoHashBuffer":{"type":"Buffer","data":[196,243,24,245,190,91,105,112,115,105,88,69,2,61,255,142,66,78,27,6]},"announce":[],"urlList":[]}}